<svg viewBox="0 0 266.666 196" xmlns="http://www.w3.org/2000/svg" xmlns:xlink="http://www.w3.org/1999/xlink" width="266.666016" height="196.000000" fill="none" customFrame="#000000">
	<defs>
		<g id="pixso_custom_effect_0">
			<effect visibility="visible" effectType="backgroundBlur" saturation="0" stdDeviation="16" />
		</g>
		<filter id="filter_0" width="266.666016" height="196.000000" x="0.000000" y="0.000000" filterUnits="userSpaceOnUse" customEffect="url(#pixso_custom_effect_0)" color-interpolation-filters="sRGB">
			<feFlood flood-opacity="0" result="BackgroundImageFix" />
			<feBlend result="shape" in="SourceGraphic" in2="BackgroundImageFix" mode="normal" />
		</filter>
		<clipPath id="outline_mask_0" transform="matrix(1,0,0,1,-0,-0)">
			<path d="M188.931 84.2378C185.433 81.2777 180.84 80.5806 176.407 80.5806C172.791 80.5806 169.335 81.1411 166.146 82.9241C164.662 83.7579 163.25 84.9139 162.398 86.4203C161.56 87.9056 161.185 89.6256 161.185 91.3246C161.185 94.0185 162.179 96.299 164.276 97.8895C165.361 98.8528 166.64 99.5499 167.968 100.107C170.041 100.972 172.238 101.47 174.428 101.915C176.16 102.268 177.992 102.538 179.654 103.169C180.902 103.642 182.345 104.99 180.882 106.167C179.974 106.899 178.886 107.162 177.752 107.229C175.148 107.379 172.704 107.18 171.077 106.314C169.446 105.449 168.765 104.847 167.916 103.498L158.828 106.963C159.62 108.725 160.615 110.459 162.155 111.66C163.32 112.571 164.707 113.146 166.056 113.706C168.226 114.61 170.555 115.083 172.888 115.286C174.046 115.388 175.211 115.423 176.372 115.419C180.673 115.402 185.169 114.848 188.736 112.189C191.194 110.354 192.668 107.719 192.668 104.594C192.668 103.365 192.192 101.869 191.747 100.871C191.302 99.8722 190.683 99.014 189.928 98.2958C189.174 97.5777 188.131 96.9226 186.942 96.3411C185.753 95.7631 185.252 95.5249 183.986 95.1325C182.721 94.7437 180.77 94.2252 179.091 93.8609C177.975 93.6192 176.848 93.4335 175.729 93.2163C174.825 93.0411 173.771 92.887 172.999 92.358C172.565 92.0638 172.224 91.5733 172.248 91.0444C172.269 90.5785 172.572 90.1616 172.947 89.8883C173.931 89.1737 175.346 88.96 176.532 88.96C178.211 88.96 179.609 89.0826 180.875 90.109C182.217 91.1985 182.568 92.4351 182.568 92.4351L191.747 88.8059C191.302 87.4712 190.745 86.168 189.81 85.1031C189.539 84.7948 189.243 84.5041 188.931 84.2378ZM195.714 114.34L195.714 85.2503L207.08 80.8924L207.08 114.34L195.714 114.34ZM105.93 101.802L119.803 101.802L119.803 93.6927L105.93 93.6927L105.93 89.7692L123.339 89.7692L123.339 81.3688L94.6163 81.3688L94.6163 114.193L123.28 114.193L123.28 105.912L105.93 105.912L105.93 101.802ZM60.268 81.5439L79.8638 81.5439C87.9162 81.7331 91.6643 86.4553 91.6643 93.0306C91.6643 102.426 80.3366 104.195 71.4531 107.95L71.4531 114.316L60.268 114.316L60.268 102.605C60.2157 101.606 60.2318 100.495 60.2492 99.293C60.2584 98.656 60.268 97.9933 60.268 97.3079L60.268 81.5439ZM147.597 81.5439L128.002 81.5439L128.002 97.3079C128.002 97.9933 127.992 98.656 127.983 99.293C127.965 100.495 127.949 101.606 128.002 102.605L128.002 114.316L139.187 114.316L139.187 107.95C148.07 104.195 159.398 102.426 159.398 93.0306C159.398 86.4553 155.646 81.7331 147.597 81.5439ZM73.2159 98.7897C73.2159 98.7897 79.9159 96.8105 79.9159 93.8784L80.055 92.908C80.055 91.3316 78.4556 89.8568 76.891 89.8568L71.4427 89.8568L71.4427 99.6095L73.2159 98.7897ZM147.65 93.8784C147.65 96.8105 140.95 98.7897 140.95 98.7897L139.176 99.6095L139.176 89.8568L144.625 89.8568C146.189 89.8568 147.789 91.3316 147.789 92.908L147.65 93.8784Z" fill="rgb(255,255,255)" fill-rule="evenodd" />
		</clipPath>
		<clipPath id="clipPath_0">
			<rect width="266.666656" height="196.000000" x="0.000000" y="0.000000" rx="32.000000" fill="rgb(255,255,255)" />
		</clipPath>
		<clipPath id="clipPath_1">
			<rect width="190.000000" height="80.000000" x="38.333984" y="58.000000" fill="rgb(255,255,255)" />
		</clipPath>
	</defs>
	<g data-pixso-skip-parse="true">
		<foreignObject width="266.666016" height="196.000000" x="0.000000" y="0.000000">
			<div xmlns="http://www.w3.org/1999/xhtml" style="clip-path:url(#outline_mask_0);height:100%;backdrop-filter:blur(8.000000px);width:100%;-webkit-backdrop-filter:blur(8.000000px);" />
		</foreignObject>
	</g>
	<g filter="url(#filter_0)" customFrame="url(#clipPath_0)">
		<rect id="Frame 31" width="266.666656" height="196.000000" x="0.000000" y="0.000000" rx="32.000000" fill="rgb(255,255,255)" />
		<g id="Logo" clip-path="url(#clipPath_1)" customFrame="url(#clipPath_1)">
			<rect id="Logo" width="190.000000" height="80.000000" x="38.333984" y="58.000000" />
			<path id="Vector" d="M188.931 84.2378C185.433 81.2777 180.84 80.5806 176.407 80.5806C172.791 80.5806 169.335 81.1411 166.146 82.9241C164.662 83.7579 163.25 84.9139 162.398 86.4203C161.56 87.9056 161.185 89.6256 161.185 91.3246C161.185 94.0185 162.179 96.299 164.276 97.8895C165.361 98.8528 166.64 99.5499 167.968 100.107C170.041 100.972 172.238 101.47 174.428 101.915C176.16 102.268 177.992 102.538 179.654 103.169C180.902 103.642 182.345 104.99 180.882 106.167C179.974 106.899 178.886 107.162 177.752 107.229C175.148 107.379 172.704 107.18 171.077 106.314C169.446 105.449 168.765 104.847 167.916 103.498L158.828 106.963C159.62 108.725 160.615 110.459 162.155 111.66C163.32 112.571 164.707 113.146 166.056 113.706C168.226 114.61 170.555 115.083 172.888 115.286C174.046 115.388 175.211 115.423 176.372 115.419C180.673 115.402 185.169 114.848 188.736 112.189C191.194 110.354 192.668 107.719 192.668 104.594C192.668 103.365 192.192 101.869 191.747 100.871C191.302 99.8722 190.683 99.014 189.928 98.2958C189.174 97.5777 188.131 96.9226 186.942 96.3411C185.753 95.7631 185.252 95.5249 183.986 95.1325C182.721 94.7437 180.77 94.2252 179.091 93.8609C177.975 93.6192 176.848 93.4335 175.729 93.2163C174.825 93.0411 173.771 92.887 172.999 92.358C172.565 92.0638 172.224 91.5733 172.248 91.0444C172.269 90.5785 172.572 90.1616 172.947 89.8883C173.931 89.1737 175.346 88.96 176.532 88.96C178.211 88.96 179.609 89.0826 180.875 90.109C182.217 91.1985 182.568 92.4351 182.568 92.4351L191.747 88.8059C191.302 87.4712 190.745 86.168 189.81 85.1031C189.539 84.7948 189.243 84.5041 188.931 84.2378ZM195.714 114.34L195.714 85.2503L207.08 80.8924L207.08 114.34L195.714 114.34ZM105.93 101.802L119.803 101.802L119.803 93.6927L105.93 93.6927L105.93 89.7692L123.339 89.7692L123.339 81.3688L94.6163 81.3688L94.6163 114.193L123.28 114.193L123.28 105.912L105.93 105.912L105.93 101.802ZM60.268 81.5439L79.8638 81.5439C87.9162 81.7331 91.6643 86.4553 91.6643 93.0306C91.6643 102.426 80.3366 104.195 71.4531 107.95L71.4531 114.316L60.268 114.316L60.268 102.605C60.2157 101.606 60.2318 100.495 60.2492 99.293C60.2584 98.656 60.268 97.9933 60.268 97.3079L60.268 81.5439ZM147.597 81.5439L128.002 81.5439L128.002 97.3079C128.002 97.9933 127.992 98.656 127.983 99.293C127.965 100.495 127.949 101.606 128.002 102.605L128.002 114.316L139.187 114.316L139.187 107.95C148.07 104.195 159.398 102.426 159.398 93.0306C159.398 86.4553 155.646 81.7331 147.597 81.5439ZM73.2159 98.7897C73.2159 98.7897 79.9159 96.8105 79.9159 93.8784L80.055 92.908C80.055 91.3316 78.4556 89.8568 76.891 89.8568L71.4427 89.8568L71.4427 99.6095L73.2159 98.7897ZM147.65 93.8784C147.65 96.8105 140.95 98.7897 140.95 98.7897L139.176 99.6095L139.176 89.8568L144.625 89.8568C146.189 89.8568 147.789 91.3316 147.789 92.908L147.65 93.8784Z" fill="rgb(67.4279,67.4279,67.4279)" fill-rule="evenodd" />
		</g>
	</g>
</svg>
