<svg width="216" height="64" fill="none" xmlns="http://www.w3.org/2000/svg">
    <g clip-path="url(#a)" fill="#fff">
        <path d="M23.077 47.525c-1.65 0-2.994.546-4.035 1.64C18 50.26 17.48 51.633 17.48 53.282V64h10.606V53.282c0-1.841-.453-3.262-1.356-4.26-.903-.998-2.12-1.497-3.653-1.497Z"/>
        <path d="M13.178 42.918c.825.691 1.473 1.364 1.946 2.014h.294c.509-.65 1.216-1.323 2.12-2.014 1.925-1.342 4.163-2.014 6.716-2.014 3.104 0 5.745 1.142 7.925 3.427 2.18 2.283 3.272 5.075 3.272 8.376V64h30.042L42.955 0H22.539L8.108 40.975c1.86.197 3.552.84 5.07 1.943ZM10.115 53.281c0-1.84-.451-3.262-1.354-4.259-.766-.845-1.757-1.328-2.973-1.458L0 64h10.115V53.281ZM87.868 27.066l-.324-1.584h-.162c-.281.337-.66.655-1.135.95-1.037.634-2.225.95-3.564.95-1.815 0-3.268-.475-4.359-1.425-1.09-.95-1.636-2.111-1.636-3.483 0-1.647.583-2.956 1.75-3.927 1.166-.97 2.851-1.457 5.054-1.457h3.727v-.317c0-.907-.265-1.635-.794-2.184-.53-.549-1.238-.823-2.123-.823-.885 0-1.518.211-2.025.633-.508.423-.805.898-.891 1.425h-4.051c.194-1.456.886-2.69 2.074-3.704 1.187-1.013 2.82-1.52 4.893-1.52 2.074 0 3.753.591 5.039 1.773 1.285 1.184 1.928 2.65 1.928 4.402v10.291h-3.401Zm-.648-6.492V20.1h-3.403c-2.052 0-3.078.686-3.078 2.058 0 .633.227 1.136.68 1.504.455.37 1.092.554 1.912.554 1.231 0 2.188-.322 2.868-.966.68-.644 1.02-1.534 1.02-2.675ZM93.861 4.899h4.051v7.758h.162a4.74 4.74 0 0 1 1.134-1.013c1.059-.697 2.247-1.045 3.565-1.045 2.16 0 3.969.776 5.428 2.328 1.459 1.55 2.187 3.573 2.187 6.064s-.728 4.512-2.187 6.064c-1.459 1.551-3.268 2.327-5.428 2.327-1.426 0-2.657-.337-3.694-1.013a4.974 4.974 0 0 1-1.167-1.044h-.162l-.324 1.741h-3.565V4.9Zm5.218 17.59c.778.835 1.793 1.251 3.046 1.251s2.268-.416 3.046-1.25c.778-.834 1.167-2 1.167-3.499s-.389-2.664-1.167-3.5c-.778-.833-1.793-1.25-3.046-1.25s-2.269.417-3.046 1.25c-.778.836-1.167 2.001-1.167 3.5s.39 2.665 1.167 3.499ZM112.333 4.899h4.051v7.758h.162c.302-.38.68-.717 1.134-1.013 1.059-.697 2.247-1.045 3.565-1.045 2.16 0 3.969.776 5.427 2.328 1.459 1.55 2.188 3.573 2.188 6.064s-.729 4.512-2.188 6.064c-1.458 1.551-3.267 2.327-5.427 2.327-1.426 0-2.657-.337-3.694-1.013a4.968 4.968 0 0 1-1.167-1.044h-.162l-.324 1.741h-3.565V4.9Zm5.218 17.59c.777.835 1.793 1.251 3.046 1.251s2.267-.416 3.046-1.25c.778-.834 1.167-2 1.167-3.499s-.389-2.664-1.167-3.5c-.779-.833-1.793-1.25-3.046-1.25s-2.269.417-3.046 1.25c-.778.836-1.167 2.001-1.167 3.5s.389 2.665 1.167 3.499ZM141.011 27.066l-.324-1.584h-.162c-.281.337-.66.655-1.134.95-1.037.634-2.226.95-3.565.95-1.814 0-3.267-.475-4.358-1.425-1.091-.95-1.637-2.111-1.637-3.483 0-1.647.583-2.956 1.75-3.927 1.167-.97 2.852-1.457 5.055-1.457h3.726v-.317c0-.907-.264-1.635-.794-2.184-.53-.549-1.237-.823-2.122-.823-.885 0-1.519.211-2.026.633-.507.423-.804.898-.891 1.425h-4.051c.195-1.456.886-2.69 2.074-3.704 1.188-1.013 2.82-1.52 4.894-1.52 2.074 0 3.753.591 5.038 1.773 1.286 1.184 1.928 2.65 1.928 4.402v10.291h-3.401Zm-.648-6.492V20.1h-3.402c-2.053 0-3.078.686-3.078 2.058 0 .633.227 1.136.68 1.504.454.37 1.091.554 1.911.554 1.232 0 2.188-.322 2.868-.966.681-.644 1.021-1.534 1.021-2.675ZM76.689 37.366h4.248v2.857h.091c.678-1.9 2.41-3.151 4.611-3.151 2.336 0 3.963 1.178 4.505 3.24h.091c.723-1.989 2.653-3.24 5.018-3.24 3.164 0 5.29 2.12 5.29 5.3v10.779h-4.4v-9.703c0-1.827-.935-2.828-2.637-2.828-1.703 0-2.773 1.193-2.773 2.945v9.586H86.5v-9.836c0-1.694-.98-2.695-2.607-2.695-1.628 0-2.803 1.237-2.803 3.004v9.527h-4.4l-.001-15.785ZM102.705 48.616c0-2.87 2.26-4.535 6.283-4.77l4.068-.236v-1.045c0-1.472-1.054-2.326-2.712-2.326-1.658 0-2.682.795-2.893 1.958h-4.023c.166-3.062 2.833-5.168 7.112-5.168 4.28 0 6.842 2.09 6.842 5.271v10.852h-4.249v-2.415h-.091c-.904 1.68-2.909 2.666-4.928 2.666-3.074 0-5.409-1.945-5.409-4.787Zm10.352-1.251v-1.15l-3.405.208c-1.643.117-2.577.839-2.577 1.958 0 1.178.995 1.914 2.487 1.914 1.913 0 3.495-1.222 3.495-2.93ZM120.212 37.366h4.249v2.843h.091c.572-2.003 1.943-3.092 3.842-3.092.512 0 .95.073 1.25.161v3.785c-.362-.148-.964-.251-1.597-.251-2.169 0-3.436 1.296-3.436 3.52v8.82h-4.399V37.366ZM141.486 37.366h4.988l-6.162 6.774 6.464 9.011h-5.064l-4.626-6.42-1.145 1.207v5.213h-4.4V31.904h4.4v11.794h.06l5.485-6.332ZM162.02 48.322c-.482 3.092-3.375 5.169-7.368 5.169-4.972 0-7.956-3.107-7.956-8.158 0-5.051 3.014-8.305 7.791-8.305 4.776 0 7.669 3.107 7.669 7.906v1.31h-11.135v.267c0 2.252 1.461 3.799 3.707 3.799 1.612 0 2.848-.78 3.255-1.988h4.037Zm-10.954-4.712h6.856c-.09-2.017-1.432-3.401-3.39-3.401-1.959 0-3.316 1.427-3.466 3.401ZM169.988 33.73v3.636h2.984v3.24h-2.984v7.554c0 1.208.603 1.782 1.899 1.782.391 0 .798-.03 1.069-.074v3.166c-.452.104-1.205.177-2.094.177-3.797 0-5.275-1.237-5.275-4.314v-8.29h-2.275v-3.24h2.275v-3.636l4.401-.001ZM175.306 33.405c0-1.25 1.024-2.223 2.35-2.223s2.35.972 2.35 2.223-1.024 2.224-2.35 2.224-2.35-.986-2.35-2.224Zm.151 3.961h4.4v15.785h-4.4V37.366ZM182.778 37.366h4.249v2.813h.091c.859-1.958 2.561-3.107 5.049-3.107 3.586 0 5.605 2.209 5.605 5.904v10.175h-4.4v-9.276c0-2.062-.995-3.24-2.968-3.24-1.973 0-3.224 1.414-3.224 3.46v9.056h-4.4l-.002-15.785ZM200.464 54.271h4.31c.346 1.089 1.612 1.84 3.284 1.84 2.276 0 3.542-1.237 3.542-3.062v-2.768h-.092c-.752 1.678-2.652 2.827-4.988 2.827-3.948 0-6.554-2.974-6.554-7.907s2.532-8.084 6.63-8.084c2.322 0 4.144 1.192 4.988 3.003h.076v-2.754H216V52.93c0 3.77-3.224 6.17-8.062 6.17-4.248 0-7.126-2.018-7.472-4.83l-.002.001Zm11.152-9.041c0-2.842-1.402-4.668-3.602-4.668s-3.542 1.796-3.542 4.668c0 2.871 1.356 4.564 3.542 4.564 2.184 0 3.602-1.708 3.602-4.564Z"/>
    </g>
    <defs>
        <clipPath id="a">
            <path fill="#fff" d="M0 0h216v64H0z"/>
        </clipPath>
    </defs>
</svg>
